<svg id="visual" viewBox="0 0 900 600" width="900" height="600" xmlns="http://www.w3.org/2000/svg" xmlns:xlink="http://www.w3.org/1999/xlink" version="1.1"><path d="M720 600L732.5 590.8C745 581.7 770 563.3 783 545.2C796 527 797 509 795.2 490.8C793.3 472.7 788.7 454.3 772 436.2C755.3 418 726.7 400 737 381.8C747.3 363.7 796.7 345.3 795.3 327.2C794 309 742 291 736.2 272.8C730.3 254.7 770.7 236.3 791.7 218.2C812.7 200 814.3 182 796.3 163.8C778.3 145.7 740.7 127.3 728.3 109.2C716 91 729 73 734.2 54.8C739.3 36.7 736.7 18.3 735.3 9.2L734 0L900 0L900 9.2C900 18.3 900 36.7 900 54.8C900 73 900 91 900 109.2C900 127.3 900 145.7 900 163.8C900 182 900 200 900 218.2C900 236.3 900 254.7 900 272.8C900 291 900 309 900 327.2C900 345.3 900 363.7 900 381.8C900 400 900 418 900 436.2C900 454.3 900 472.7 900 490.8C900 509 900 527 900 545.2C900 563.3 900 581.7 900 590.8L900 600Z" fill="#586F7C" stroke-linecap="round" stroke-linejoin="miter"></path></svg>